<svg width="720" height="443" viewBox="0 0 720 443" fill="none" xmlns="http://www.w3.org/2000/svg">
<path d="M65.7073 65.2535C76.9609 64.8071 104.411 63.9071 118.368 60.7535C117.915 66.6071 117.015 84.6071 117.015 118.804V134.104C129.615 123.75 139.972 118.35 152.572 118.35C158.949 118.103 165.282 119.506 170.958 122.424C176.634 125.341 181.461 129.674 184.972 135.004C191.208 146.119 194.318 158.716 193.972 171.457C193.972 213.3 174.172 237.154 134.111 237.154C123.179 236.913 112.431 234.302 102.607 229.5C97.2073 231.3 90.0073 234.9 82.8073 237.154L80.5537 235.8C81.0073 223.646 81.0073 200.7 81.0073 169.65V112.05C81.0073 97.6499 80.5537 87.7499 80.1073 79.2035C79.6537 73.3499 78.3073 72.4499 64.8037 72.4499L65.7073 65.2535ZM134.107 228.6C149.411 228.6 156.611 210.146 156.611 175.95C157.104 164.513 154.948 153.116 150.311 142.65C148.976 139.966 146.924 137.705 144.382 136.116C141.84 134.528 138.908 133.674 135.911 133.65C132.538 133.818 129.257 134.808 126.354 136.533C123.451 138.259 121.013 140.668 119.254 143.55C117.007 146.704 116.107 149.404 116.107 184.95C116.107 214.204 117.461 215.104 119.261 218.704C120.496 221.626 122.561 224.122 125.202 225.882C127.842 227.641 130.942 228.586 134.115 228.6H134.107ZM272.707 234.454C263.254 234.454 253.804 233.546 238.95 233.546C223.2 233.546 215.55 234.454 207.9 234.454V226.8C220.5 226.346 222.3 224.1 222.754 219.146C223.2 213.746 223.654 205.2 223.654 191.246V162.446C223.654 150.746 223.654 141.3 223.2 137.246C222.747 133.193 220.947 131.846 209.247 132.3V124.65C225.004 123.304 243.904 122.85 259.207 119.704C258.754 125.557 258.307 136.357 258.307 161.104V192.157C258.307 206.557 258.761 212.857 259.207 219.157C259.654 225.457 261.461 226.357 272.707 227.704V234.454ZM238.975 67.5071C250.683 67.5071 257.433 74.2607 257.433 86.4071C257.433 96.7607 249.779 103.961 238.075 103.961C235.741 104.072 233.409 103.694 231.229 102.851C229.049 102.008 227.07 100.719 225.418 99.0659C223.765 97.4132 222.476 95.4334 221.634 93.2534C220.791 91.0735 220.414 88.7415 220.525 86.4071C220.376 83.9238 220.747 81.4366 221.615 79.1053C222.484 76.774 223.831 74.6502 225.569 72.8702C227.307 71.0903 229.399 69.6937 231.709 68.7701C234.019 67.8465 236.496 67.4163 238.983 67.5071H238.975ZM284.433 65.2535C300.875 64.971 317.274 63.4668 333.493 60.7535C332.884 79.3463 332.581 97.9463 332.586 116.554V172.804C341.14 170.55 359.586 148.05 366.786 135.004C368.14 132.304 368.14 130.95 364.54 130.95L354.64 130.05V122.404C371.297 122.857 388.397 121.95 405.501 121.05V128.704C392.901 130.057 387.943 130.957 382.99 135.004C375.243 141.959 368.024 149.48 361.39 157.504C366.79 168.757 389.301 210.154 397.847 221.4C399.088 223.204 400.78 224.651 402.755 225.599C404.729 226.546 406.917 226.96 409.101 226.8L415.393 227.254L414.947 234.9C398.249 234.548 381.549 235.451 364.986 237.6C359.586 225 343.386 194.4 338.436 184.95C335.736 180.004 334.383 178.204 332.583 178.65C332.583 197.104 332.136 206.104 333.036 219.146C333.49 225 334.836 226.8 346.99 227.246V234.9C338.436 234.9 329.433 234 314.59 234C297.033 234 289.39 234.9 282.633 234.9V227.246C294.333 226.8 296.133 224.554 296.586 220.046C297.033 214.646 297.479 202.946 297.479 179.55V121.504C297.479 103.05 297.479 89.1035 297.033 77.4071C297.033 74.7071 295.233 73.3559 291.633 73.3535H283.979L284.433 65.2535ZM175.975 345.593C168.322 369.893 153.472 381.593 128.715 381.593C107.557 381.593 94.0573 375.739 84.6109 363.139C77.4109 353.693 73.8109 339.739 73.8109 323.993C73.8109 289.339 94.9681 262.793 133.672 262.793C157.072 262.793 174.175 273.593 174.175 291.146C174.175 303.293 164.275 308.239 156.175 308.239C153.043 308.19 149.963 307.422 147.175 305.993C145.816 305.194 144.764 303.961 144.19 302.493C143.615 301.025 143.551 299.406 144.007 297.896C144.68 294.781 145.133 291.622 145.361 288.443C145.361 277.196 141.307 271.796 132.761 271.796C118.807 271.796 111.607 292.05 111.607 319.95C111.607 331.196 112.961 343.796 117.007 351.443C121.507 361.796 128.707 367.643 139.511 367.643C153.011 367.643 161.568 359.996 167.868 342.443L175.975 345.593ZM201.607 312.75C201.816 302.23 201.364 291.706 200.254 281.243C200.226 280.582 200.059 279.934 199.766 279.341C199.472 278.748 199.058 278.223 198.549 277.8C198.041 277.377 197.449 277.065 196.813 276.884C196.176 276.703 195.509 276.657 194.854 276.75H186.754V269.096C200.254 268.643 218.711 267.743 231.754 263.696L233.107 264.596C234.007 269.996 234.907 283.05 235.361 291.15H236.254C242.115 275.396 250.207 262.796 266.854 262.796C269.146 262.833 271.406 263.334 273.499 264.268C275.592 265.203 277.474 266.552 279.031 268.235C280.588 269.917 281.787 271.898 282.557 274.057C283.327 276.216 283.652 278.508 283.511 280.796C283.511 295.65 272.257 300.15 267.754 300.15C265.972 300.422 264.149 300.134 262.537 299.327C260.925 298.52 259.604 297.232 258.754 295.643C256.507 290.696 255.154 287.996 250.661 287.996C245.707 287.996 243.007 292.496 239.861 299.696C238.184 304.927 237.421 310.407 237.607 315.896C237.607 341.55 237.607 355.946 238.061 362.246C238.515 368.546 240.754 370.339 258.757 370.793L258.311 378.446C245.711 377.993 234.454 377.539 221.407 377.539C207.907 377.539 198.007 377.993 186.75 378.446L188.097 370.793C198.897 370.339 201.597 368.993 201.597 364.493C202.05 358.193 202.497 346.039 202.497 332.093V312.743H201.607V312.75ZM354.179 292.05C354.179 278.543 349.672 271.343 340.672 271.343C330.325 271.343 325.379 277.196 325.379 287.996C325.431 290.868 325.73 293.729 326.272 296.55C326.558 297.815 326.454 299.137 325.974 300.342C325.493 301.546 324.658 302.576 323.579 303.296C319.828 305.773 315.47 307.175 310.979 307.35C302.425 307.35 295.222 303.289 295.222 293.396C295.222 278.996 316.379 262.796 346.083 262.796C370.379 262.796 381.179 272.696 385.233 278.996C387.567 282.621 388.816 286.838 388.833 291.15V357.293C388.833 364.946 391.086 366.746 393.786 366.746C397.386 366.746 401.433 360.893 403.233 350.993L410.886 354.593C406.833 373.946 395.129 382.046 378.929 382.046C364.975 382.046 357.329 376.193 355.072 364.493C344.272 375.293 333.022 382.046 321.322 382.046C302.418 382.046 289.818 369.446 289.818 348.739C289.818 336.139 295.218 328.939 304.672 324.893C319.965 318.139 342.922 311.393 354.172 303.293V292.043L354.179 292.05ZM325.84 341.993C325.84 351.893 329.893 362.693 339.793 362.693C346.993 362.693 350.14 358.193 352.393 353.693C353.429 350.19 353.884 346.542 353.74 342.893V312.293C348.786 315.446 341.14 319.046 335.283 322.646C329.886 326.25 325.84 330.743 325.84 341.993ZM414.951 266.85L429.351 267.296V260.096C429.804 241.196 434.304 227.243 444.204 217.346C448.459 212.96 453.571 209.498 459.223 207.176C464.875 204.853 470.945 203.72 477.054 203.846C495.511 203.846 505.411 212.846 505.411 224.546C505.411 233.1 498.211 238.946 488.301 238.946C487.1 239.019 485.897 238.836 484.772 238.409C483.648 237.982 482.626 237.322 481.776 236.471C480.925 235.621 480.265 234.599 479.838 233.474C479.411 232.35 479.228 231.147 479.301 229.946C479.301 220.5 477.954 212.854 471.208 212.854C466.701 212.854 464.008 216.9 463.101 224.554C462.208 231.754 463.554 245.254 464.454 266.396H486.511L485.158 275.396L464.454 276.75C464.001 285.296 464.001 300.15 464.001 317.693C464.001 334.346 464.001 349.193 464.454 360.893C464.908 366.746 465.808 368.993 470.754 369.446C474.788 369.95 478.844 370.248 482.908 370.339L481.993 377.993C473.447 377.993 459.943 377.093 448.243 377.093C436.09 377.093 421.686 377.993 413.586 377.993L414.04 370.339C425.74 369.893 427.54 368.539 427.993 363.593C428.886 355.939 428.886 344.239 428.886 328.493V276.296L413.593 275.396L414.94 266.843L414.951 266.85Z" fill="#FEC63E"/>
<path d="M569.257 266.832L568.35 275.375L540.893 277.175C540.893 286.629 540.439 300.575 540.439 319.479C540.439 339.279 540.439 352.782 541.346 360.879C541.793 366.732 544.039 369.432 548.546 369.432C557.993 369.432 563.843 359.079 566.096 349.632H569.696L572.857 359.975C567.457 373.029 553.946 382.032 534.146 382.032C523.346 382.032 513.896 378.432 509.396 373.032C506.056 368.324 504.464 362.599 504.893 356.843C504.893 338.375 505.793 296.975 505.793 277.175L491.393 275.821L492.293 267.275H505.793C506.246 258.721 506.246 248.818 506.246 239.818C518.073 237.139 529.445 232.745 540 226.775L542.7 227.229C541.913 240.565 541.462 253.915 541.346 267.279H569.257V266.825V266.832Z" fill="#FEC63E"/>
<path d="M684 35.7084V407.092H36V35.7084H684ZM720 0H0V442.8H720V0Z" fill="#FEC63E"/>
</svg>
