<svg width="200" height="123" viewBox="0 0 200 123" fill="none" xmlns="http://www.w3.org/2000/svg">
<path d="M18.252 18.126C21.378 18.002 29.003 17.752 32.88 16.876C32.754 18.502 32.504 23.502 32.504 33.001V37.251C36.004 34.375 38.881 32.875 42.381 32.875C44.1524 32.8064 45.9116 33.1961 47.4882 34.0065C49.0649 34.8169 50.4057 36.0206 51.381 37.501C53.1132 40.5887 53.9771 44.0878 53.881 47.627C53.881 59.25 48.381 65.876 37.253 65.876C34.2165 65.8093 31.2306 65.0839 28.502 63.75C27.002 64.25 25.002 65.25 23.002 65.876L22.376 65.5C22.502 62.124 22.502 55.75 22.502 47.125V31.125C22.502 27.125 22.376 24.375 22.252 22.001C22.126 20.375 21.752 20.125 18.001 20.125L18.252 18.126ZM37.252 63.5C41.503 63.5 43.503 58.374 43.503 48.875C43.6399 45.698 43.041 42.5323 41.753 39.625C41.3821 38.8795 40.8121 38.2513 40.1061 37.8101C39.4 37.3688 38.5855 37.1317 37.753 37.125C36.816 37.1717 35.9047 37.4466 35.0983 37.9259C34.2919 38.4052 33.6148 39.0743 33.126 39.875C32.502 40.751 32.252 41.501 32.252 51.375C32.252 59.501 32.628 59.751 33.128 60.751C33.4709 61.5629 34.0448 62.2562 34.7783 62.7449C35.5117 63.2336 36.3726 63.4962 37.254 63.5H37.252ZM75.752 65.126C73.126 65.126 70.501 64.874 66.375 64.874C62 64.874 59.875 65.126 57.75 65.126V63C61.25 62.874 61.75 62.25 61.876 60.874C62 59.374 62.126 57 62.126 53.124V45.124C62.126 41.874 62.126 39.25 62 38.124C61.874 36.998 61.374 36.624 58.124 36.75V34.625C62.501 34.251 67.751 34.125 72.002 33.251C71.876 34.877 71.752 37.877 71.752 44.751V53.377C71.752 57.377 71.878 59.127 72.002 60.877C72.126 62.627 72.628 62.877 75.752 63.251V65.126ZM66.382 18.752C69.634 18.752 71.509 20.628 71.509 24.002C71.509 26.878 69.383 28.878 66.132 28.878C65.4835 28.9088 64.8358 28.8038 64.2303 28.5696C63.6248 28.3355 63.0749 27.9774 62.6159 27.5183C62.1569 27.0592 61.7989 26.5093 61.5649 25.9037C61.3309 25.2982 61.226 24.6504 61.257 24.002C61.2154 23.3122 61.3185 22.6213 61.5598 21.9737C61.8011 21.3261 62.1752 20.7361 62.658 20.2417C63.1408 19.7473 63.7217 19.3594 64.3634 19.1028C65.0051 18.8462 65.6934 18.7267 66.384 18.752H66.382ZM79.009 18.126C83.5763 18.0475 88.1315 17.6297 92.637 16.876C92.4676 22.0406 92.3836 27.2073 92.385 32.376V48.001C94.761 47.375 99.885 41.125 101.885 37.501C102.261 36.751 102.261 36.375 101.261 36.375L98.511 36.125V34.001C103.138 34.127 107.888 33.875 112.639 33.625V35.751C109.139 36.127 107.762 36.377 106.386 37.501C104.234 39.4331 102.229 41.5222 100.386 43.751C101.886 46.877 108.139 58.376 110.513 61.5C110.858 62.0011 111.328 62.4032 111.876 62.6663C112.425 62.9295 113.032 63.0445 113.639 63L115.387 63.126L115.263 65.25C110.625 65.1523 105.986 65.403 101.385 66C99.885 62.5 95.385 54 94.01 51.375C93.26 50.001 92.884 49.501 92.384 49.625C92.384 54.751 92.26 57.251 92.51 60.874C92.636 62.5 93.01 63 96.386 63.124V65.25C94.01 65.25 91.509 65 87.386 65C82.509 65 80.386 65.25 78.509 65.25V63.124C81.759 63 82.259 62.376 82.385 61.124C82.509 59.624 82.633 56.374 82.633 49.875V33.751C82.633 28.625 82.633 24.751 82.509 21.502C82.509 20.752 82.009 20.3766 81.009 20.376H78.883L79.009 18.126ZM48.882 95.998C46.756 102.748 42.631 105.998 35.754 105.998C29.877 105.998 26.127 104.372 23.503 100.872C21.503 98.248 20.503 94.372 20.503 89.998C20.503 80.372 26.38 72.998 37.131 72.998C43.631 72.998 48.382 75.998 48.382 80.874C48.382 84.248 45.632 85.622 43.382 85.622C42.5118 85.6085 41.6564 85.3949 40.882 84.998C40.5044 84.7761 40.2123 84.4337 40.0527 84.0258C39.8931 83.6179 39.8752 83.1682 40.002 82.749C40.1889 81.8836 40.3145 81.0061 40.378 80.123C40.378 76.999 39.252 75.499 36.878 75.499C33.002 75.499 31.002 81.125 31.002 88.875C31.002 91.999 31.378 95.499 32.502 97.623C33.752 100.499 35.752 102.123 38.753 102.123C42.503 102.123 44.88 99.999 46.63 95.123L48.882 95.998ZM56.002 86.875C56.06 83.9526 55.9344 81.0296 55.626 78.123C55.6182 77.9394 55.572 77.7594 55.4904 77.5947C55.4089 77.43 55.2938 77.2842 55.1525 77.1666C55.0112 77.0491 54.8469 76.9624 54.6701 76.9122C54.4933 76.8619 54.308 76.8493 54.126 76.875H51.876V74.749C55.626 74.623 60.753 74.373 64.376 73.249L64.752 73.499C65.002 74.999 65.252 78.625 65.378 80.875H65.626C67.254 76.499 69.502 72.999 74.126 72.999C74.7626 73.0091 75.3906 73.1482 75.972 73.4079C76.5534 73.6675 77.0761 74.0423 77.5085 74.5097C77.941 74.977 78.2742 75.5271 78.4881 76.1269C78.702 76.7266 78.7921 77.3635 78.753 77.999C78.753 82.125 75.627 83.375 74.376 83.375C73.881 83.4504 73.3747 83.3706 72.927 83.1464C72.4792 82.9221 72.112 82.5646 71.876 82.123C71.252 80.749 70.876 79.999 69.628 79.999C68.252 79.999 67.502 81.249 66.628 83.249C66.1621 84.7018 65.9504 86.2241 66.002 87.749C66.002 94.875 66.002 98.874 66.128 100.624C66.254 102.374 66.876 102.872 71.877 102.998L71.753 105.124C68.253 104.998 65.126 104.872 61.502 104.872C57.752 104.872 55.002 104.998 51.875 105.124L52.249 102.998C55.249 102.872 55.999 102.498 55.999 101.248C56.125 99.498 56.249 96.122 56.249 92.248V86.873H56.002V86.875ZM98.383 81.125C98.383 77.373 97.131 75.373 94.631 75.373C91.757 75.373 90.383 76.999 90.383 79.999C90.3976 80.7966 90.4805 81.5915 90.631 82.375C90.7106 82.7263 90.6817 83.0936 90.5482 83.4282C90.4146 83.7628 90.1827 84.049 89.883 84.249C88.8411 84.937 87.6306 85.3264 86.383 85.375C84.007 85.375 82.006 84.247 82.006 81.499C82.006 77.499 87.883 72.999 96.134 72.999C102.883 72.999 105.883 75.749 107.009 77.499C107.657 78.5059 108.004 79.6773 108.009 80.875V99.248C108.009 101.374 108.635 101.874 109.385 101.874C110.385 101.874 111.509 100.248 112.009 97.498L114.135 98.498C113.009 103.874 109.758 106.124 105.258 106.124C101.382 106.124 99.258 104.498 98.631 101.248C95.631 104.248 92.506 106.124 89.256 106.124C84.005 106.124 80.505 102.624 80.505 96.872C80.505 93.372 82.005 91.372 84.631 90.248C88.879 88.372 95.256 86.498 98.381 84.248V81.123L98.383 81.125ZM90.511 94.998C90.511 97.748 91.637 100.748 94.387 100.748C96.387 100.748 97.261 99.498 97.887 98.248C98.1747 97.2751 98.301 96.2617 98.261 95.248V86.748C96.885 87.624 94.761 88.624 93.134 89.624C91.635 90.625 90.511 91.873 90.511 94.998ZM115.264 74.125L119.264 74.249V72.249C119.39 66.999 120.64 63.123 123.39 60.374C124.572 59.1557 125.992 58.1939 127.562 57.5488C129.132 56.9036 130.818 56.5888 132.515 56.624C137.642 56.624 140.392 59.124 140.392 62.374C140.392 64.75 138.392 66.374 135.639 66.374C135.305 66.3941 134.971 66.3432 134.659 66.2247C134.347 66.1062 134.063 65.9227 133.826 65.6865C133.59 65.4502 133.407 65.1664 133.288 64.854C133.17 64.5416 133.119 64.2075 133.139 63.874C133.139 61.25 132.765 59.126 130.891 59.126C129.639 59.126 128.891 60.25 128.639 62.376C128.391 64.376 128.765 68.126 129.015 73.999H135.142L134.766 76.499L129.015 76.875C128.889 79.249 128.889 83.375 128.889 88.248C128.889 92.874 128.889 96.998 129.015 100.248C129.141 101.874 129.391 102.498 130.765 102.624C131.885 102.764 133.012 102.847 134.141 102.872L133.887 104.998C131.513 104.998 127.762 104.748 124.512 104.748C121.136 104.748 117.135 104.998 114.885 104.998L115.011 102.872C118.261 102.748 118.761 102.372 118.887 100.998C119.135 98.872 119.135 95.622 119.135 91.248V76.749L114.887 76.499L115.261 74.123L115.264 74.125Z" fill="#FEC63E"/>
<path d="M158.127 74.12L157.875 76.493L150.248 76.993C150.248 79.619 150.122 83.493 150.122 88.7441C150.122 94.2441 150.122 97.9951 150.374 100.244C150.498 101.87 151.122 102.62 152.374 102.62C154.998 102.62 156.623 99.7441 157.249 97.1201H158.249L159.127 99.9931C157.627 103.619 153.874 106.12 148.374 106.12C145.374 106.12 142.749 105.12 141.499 103.62C140.571 102.312 140.129 100.722 140.248 99.1231C140.248 93.9931 140.498 82.493 140.498 76.993L136.498 76.617L136.748 74.243H140.498C140.624 71.867 140.624 69.116 140.624 66.616C143.909 65.8719 147.068 64.6513 150 62.993L150.75 63.119C150.531 66.8237 150.406 70.532 150.374 74.244H158.127V74.118V74.12Z" fill="#FEC63E"/>
<path d="M190 9.919V113.081H10V9.919H190ZM200 0H0V123H200V0Z" fill="#FEC63E"/>
</svg>
