<svg width="882" height="644" viewBox="0 0 882 644" fill="none" xmlns="http://www.w3.org/2000/svg">
<path d="M2.4145 9.50708C24.9217 8.61428 79.8217 6.81428 107.736 0.50708C106.829 12.2143 105.029 48.2143 105.029 116.607V147.207C130.229 126.5 150.943 115.7 176.143 115.7C188.898 115.206 201.564 118.012 212.916 123.847C224.268 129.682 233.922 138.348 240.943 149.007C253.415 171.239 259.635 196.433 258.943 221.914C258.943 305.6 219.343 353.307 139.222 353.307C117.359 352.827 95.8609 347.604 76.2145 338C65.4145 341.6 51.0145 348.8 36.6145 353.307L32.1073 350.6C33.0145 326.293 33.0145 280.4 33.0145 218.3V103.1C33.0145 74.2999 32.1073 54.4999 31.2145 37.4071C30.3073 25.6999 27.6145 23.8999 0.6073 23.8999L2.4145 9.50708ZM139.215 336.2C169.822 336.2 184.222 299.293 184.222 230.9C185.208 208.026 180.896 185.233 171.622 164.3C168.952 158.933 164.847 154.41 159.764 151.232C154.68 148.055 148.816 146.348 142.822 146.3C136.076 146.636 129.514 148.616 123.708 152.067C117.902 155.518 113.027 160.335 109.507 166.1C105.015 172.407 103.215 177.807 103.215 248.9C103.215 307.407 105.922 309.207 109.522 316.407C111.991 322.253 116.123 327.245 121.404 330.764C126.685 334.282 132.883 336.173 139.229 336.2H139.215ZM416.415 347.907C397.507 347.907 378.607 346.093 348.9 346.093C317.4 346.093 302.1 347.907 286.8 347.907V332.6C312 331.693 315.6 327.2 316.507 317.293C317.4 306.493 318.307 289.4 318.307 261.493V203.893C318.307 180.493 318.307 161.6 317.4 153.493C316.493 145.385 312.893 142.693 289.493 143.6V128.3C321.007 125.607 358.807 124.7 389.415 118.407C388.507 130.114 387.615 151.714 387.615 201.207V263.314C387.615 292.114 388.522 304.714 389.415 317.314C390.307 329.914 393.922 331.714 416.415 334.407V347.907ZM348.951 14.0143C372.365 14.0143 385.865 27.5215 385.865 51.8143C385.865 72.5215 370.558 86.9215 347.151 86.9215C342.482 87.1435 337.818 86.3873 333.458 84.7015C329.099 83.0156 325.14 80.4373 321.835 77.1319C318.53 73.8264 315.953 69.8668 314.268 65.5069C312.583 61.147 311.828 56.4831 312.051 51.8143C311.751 46.8476 312.494 41.8732 314.231 37.2106C315.968 32.548 318.661 28.3003 322.138 24.7405C325.614 21.1807 329.797 18.3874 334.417 16.5402C339.037 14.6929 343.993 13.8325 348.965 14.0143H348.951ZM439.865 9.50708C472.75 8.94193 505.547 5.93365 537.987 0.50708C536.767 37.6927 536.163 74.8927 536.172 112.107V224.607C553.279 220.1 590.172 175.1 604.572 149.007C607.279 143.607 607.279 140.9 600.079 140.9L580.279 139.1V123.807C613.594 124.714 647.794 122.9 682.001 121.1V136.407C656.801 139.114 646.887 140.914 636.979 149.007C621.487 162.918 607.047 177.96 593.779 194.007C604.579 216.514 649.601 299.307 666.694 321.8C669.177 325.408 672.56 328.303 676.509 330.198C680.457 332.092 684.833 332.92 689.201 332.6L701.787 333.507L700.894 348.8C667.498 348.097 634.097 349.902 600.972 354.2C590.172 329 557.772 267.8 547.872 248.9C542.472 239.007 539.765 235.407 536.165 236.3C536.165 273.207 535.272 291.207 537.072 317.293C537.979 329 540.672 332.6 564.979 333.493V348.8C547.872 348.8 529.865 347 500.179 347C465.065 347 449.779 348.8 436.265 348.8V333.493C459.665 332.6 463.265 328.107 464.172 319.093C465.065 308.293 465.958 284.893 465.958 238.1V122.007C465.958 85.0999 465.958 57.2071 465.065 33.8143C465.065 28.4143 461.465 25.7119 454.265 25.7071H438.958L439.865 9.50708ZM222.951 570.185C207.643 618.785 177.943 642.185 128.429 642.185C86.1145 642.185 59.1145 630.478 40.2217 605.278C25.8217 586.385 18.6217 558.478 18.6217 526.985C18.6217 457.678 60.9361 404.585 138.343 404.585C185.143 404.585 219.351 426.185 219.351 461.293C219.351 485.585 199.551 495.478 183.351 495.478C177.085 495.381 170.927 493.844 165.351 490.985C162.632 489.388 160.529 486.923 159.38 483.986C158.23 481.049 158.102 477.811 159.014 474.793C160.36 468.562 161.265 462.244 161.722 455.885C161.722 433.393 153.615 422.593 136.522 422.593C108.614 422.593 94.2145 463.1 94.2145 518.9C94.2145 541.393 96.9217 566.593 105.015 581.885C114.015 602.593 128.414 614.285 150.022 614.285C177.022 614.285 194.136 598.993 206.736 563.885L222.951 570.185ZM274.215 504.5C274.632 483.459 273.728 462.413 271.507 441.485C271.451 440.163 271.119 438.868 270.531 437.682C269.944 436.496 269.116 435.446 268.098 434.6C267.081 433.753 265.898 433.129 264.625 432.768C263.352 432.406 262.018 432.315 260.707 432.5H244.507V417.193C271.507 416.285 308.422 414.485 334.507 406.393L337.215 408.193C339.015 418.993 340.815 445.1 341.722 461.3H343.507C355.229 429.793 371.415 404.593 404.707 404.593C409.291 404.666 413.813 405.667 417.999 407.537C422.184 409.406 425.948 412.105 429.062 415.47C432.176 418.834 434.575 422.795 436.115 427.113C437.655 431.431 438.304 436.017 438.022 440.593C438.022 470.3 415.515 479.3 406.507 479.3C402.943 479.843 399.298 479.268 396.074 477.654C392.851 476.039 390.207 473.465 388.507 470.285C384.015 460.393 381.307 454.993 372.322 454.993C362.415 454.993 357.015 463.993 350.722 478.393C347.368 488.853 345.843 499.814 346.215 510.793C346.215 562.1 346.215 590.893 347.122 603.493C348.029 616.093 352.507 619.678 388.515 620.585L387.622 635.893C362.422 634.986 339.907 634.078 313.815 634.078C286.815 634.078 267.015 634.986 244.5 635.893L247.193 620.585C268.793 619.678 274.193 616.985 274.193 607.985C275.1 595.385 275.993 571.078 275.993 543.185V504.485H274.215V504.5ZM579.358 463.1C579.358 436.085 570.343 421.685 552.343 421.685C531.651 421.685 521.758 433.393 521.758 454.993C521.863 460.736 522.46 466.459 523.543 472.1C524.117 474.63 523.909 477.274 522.947 479.683C521.985 482.092 520.315 484.153 518.158 485.593C510.656 490.546 501.941 493.35 492.958 493.7C475.851 493.7 461.443 485.578 461.443 465.793C461.443 436.993 503.758 404.593 563.165 404.593C611.758 404.593 633.358 424.393 641.465 436.993C646.134 444.243 648.632 452.677 648.665 461.3V593.585C648.665 608.893 653.172 612.493 658.572 612.493C665.772 612.493 673.865 600.785 677.465 580.985L692.772 588.185C684.665 626.893 661.258 643.093 628.858 643.093C600.951 643.093 585.658 631.385 581.143 607.985C559.543 629.585 537.043 643.093 513.643 643.093C475.836 643.093 450.636 617.893 450.636 576.478C450.636 551.278 461.436 536.878 480.343 528.785C510.929 515.278 556.843 501.785 579.343 485.585V463.085L579.358 463.1ZM522.679 562.985C522.679 582.785 530.787 604.385 550.587 604.385C564.987 604.385 571.279 595.385 575.787 586.385C577.858 579.381 578.768 572.084 578.479 564.785V503.585C568.572 509.893 553.279 517.093 541.565 524.293C530.772 531.5 522.679 540.485 522.679 562.985ZM700.901 412.7L729.701 413.593V399.193C730.608 361.393 739.608 333.485 759.408 313.693C767.917 304.921 778.143 297.996 789.447 293.351C800.75 288.706 812.89 286.439 825.108 286.693C862.023 286.693 881.823 304.693 881.823 328.093C881.823 345.2 867.423 356.893 847.601 356.893C845.199 357.038 842.794 356.671 840.545 355.818C838.295 354.965 836.252 353.644 834.551 351.942C832.85 350.241 831.529 348.198 830.676 345.949C829.822 343.699 829.456 341.294 829.601 338.893C829.601 320 826.908 304.707 813.415 304.707C804.401 304.707 799.015 312.8 797.201 328.107C795.415 342.507 798.108 369.507 799.908 411.793H844.023L841.315 429.793L799.908 432.5C799.001 449.593 799.001 479.3 799.001 514.385C799.001 547.693 799.001 577.385 799.908 600.785C800.815 612.493 802.615 616.986 812.508 617.893C820.575 618.899 828.688 619.495 836.815 619.678L834.987 634.985C817.894 634.985 790.887 633.185 767.487 633.185C743.179 633.185 714.372 634.985 698.172 634.985L699.079 619.678C722.479 618.785 726.079 616.078 726.987 606.185C728.772 590.878 728.772 567.478 728.772 535.985V431.593L698.187 429.793L700.879 412.685L700.901 412.7Z" fill="#FEC63E"/>
</svg>
