<svg width="920" height="566" viewBox="0 0 920 566" fill="none" xmlns="http://www.w3.org/2000/svg">
<path d="M83.9593 83.3795C98.3389 82.8091 133.414 81.6591 151.248 77.6295C150.668 85.1091 149.519 108.109 149.519 151.805V171.355C165.619 158.125 178.853 151.225 194.953 151.225C203.101 150.909 211.193 152.702 218.446 156.43C225.699 160.158 231.867 165.695 236.353 172.505C244.321 186.708 248.295 202.804 247.853 219.084C247.853 272.55 222.553 303.03 171.364 303.03C157.396 302.723 143.661 299.386 131.109 293.25C124.209 295.55 115.009 300.15 105.809 303.03L102.93 301.3C103.509 285.77 103.509 256.45 103.509 216.775V143.175C103.509 124.775 102.93 112.125 102.359 101.205C101.78 93.7249 100.059 92.5749 82.8047 92.5749L83.9593 83.3795ZM171.359 292.1C190.914 292.1 200.114 268.52 200.114 224.825C200.744 210.211 197.989 195.649 192.064 182.275C190.358 178.846 187.736 175.956 184.488 173.926C181.24 171.896 177.494 170.806 173.664 170.775C169.354 170.99 165.162 172.255 161.452 174.459C157.743 176.664 154.628 179.742 152.38 183.425C149.509 187.455 148.359 190.905 148.359 236.325C148.359 273.705 150.089 274.855 152.389 279.455C153.966 283.189 156.606 286.379 159.98 288.627C163.354 290.875 167.314 292.082 171.369 292.1H171.359ZM348.459 299.58C336.38 299.58 324.305 298.42 305.325 298.42C285.2 298.42 275.425 299.58 265.65 299.58V289.8C281.75 289.22 284.05 286.35 284.63 280.02C285.2 273.12 285.78 262.2 285.78 244.37V207.57C285.78 192.62 285.78 180.55 285.2 175.37C284.621 170.191 282.321 168.47 267.371 169.05V159.275C287.505 157.555 311.655 156.975 331.209 152.955C330.63 160.434 330.059 174.234 330.059 205.855V245.534C330.059 263.934 330.639 271.984 331.209 280.034C331.78 288.084 334.089 289.234 348.459 290.955V299.58ZM305.357 86.2591C320.317 86.2591 328.942 94.8887 328.942 110.409C328.942 123.639 319.162 132.839 304.207 132.839C301.224 132.981 298.245 132.497 295.46 131.42C292.674 130.343 290.145 128.696 288.033 126.584C285.922 124.472 284.275 121.943 283.199 119.157C282.122 116.372 281.64 113.392 281.782 110.409C281.591 107.236 282.065 104.058 283.175 101.079C284.285 98.1001 286.006 95.3863 288.227 93.112C290.448 90.8377 293.12 89.0531 296.072 87.8729C299.024 86.6927 302.19 86.143 305.367 86.2591H305.357ZM363.442 83.3795C384.451 83.0184 405.405 81.0965 426.13 77.6295C425.351 101.387 424.965 125.154 424.971 148.93V220.805C435.901 217.925 459.471 189.175 468.671 172.505C470.401 169.055 470.401 167.325 465.801 167.325L453.151 166.175V156.405C474.435 156.984 496.285 155.825 518.14 154.675V164.455C502.04 166.184 495.705 167.334 489.376 172.505C479.478 181.392 470.252 191.002 461.776 201.255C468.676 215.634 497.44 268.53 508.36 282.9C509.946 285.205 512.108 287.055 514.631 288.265C517.153 289.476 519.949 290.005 522.74 289.8L530.78 290.38L530.21 300.15C508.874 299.701 487.534 300.854 466.371 303.6C459.471 287.5 438.771 248.4 432.446 236.325C428.996 230.005 427.267 227.705 424.967 228.275C424.967 251.855 424.396 263.355 425.546 280.02C426.126 287.5 427.846 289.8 443.376 290.37V300.15C432.446 300.15 420.942 299 401.976 299C379.542 299 369.776 300.15 361.142 300.15V290.37C376.092 289.8 378.392 286.93 378.971 281.17C379.542 274.27 380.112 259.32 380.112 229.425V155.255C380.112 131.675 380.112 113.855 379.542 98.9091C379.542 95.4591 377.242 93.7326 372.642 93.7295H362.862L363.442 83.3795ZM224.857 441.591C215.078 472.641 196.103 487.591 164.469 487.591C137.434 487.591 120.184 480.111 108.114 464.011C98.9139 451.941 94.3139 434.111 94.3139 413.991C94.3139 369.711 121.348 335.791 170.803 335.791C200.703 335.791 222.557 349.591 222.557 372.02C222.557 387.541 209.907 393.861 199.557 393.861C195.555 393.799 191.62 392.817 188.057 390.991C186.32 389.97 184.977 388.395 184.243 386.519C183.508 384.642 183.426 382.574 184.009 380.645C184.869 376.664 185.447 372.628 185.739 368.566C185.739 354.195 180.559 347.295 169.639 347.295C151.809 347.295 142.609 373.175 142.609 408.825C142.609 423.195 144.339 439.295 149.509 449.066C155.259 462.295 164.459 469.766 178.264 469.766C195.514 469.766 206.448 459.995 214.498 437.566L224.857 441.591ZM257.609 399.625C257.876 386.182 257.298 372.736 255.88 359.366C255.844 358.521 255.631 357.693 255.256 356.936C254.881 356.178 254.352 355.507 253.702 354.966C253.052 354.426 252.296 354.027 251.483 353.796C250.669 353.565 249.817 353.507 248.98 353.625H238.63V343.845C255.88 343.266 279.464 342.116 296.13 336.945L297.859 338.095C299.009 344.995 300.159 361.675 300.739 372.025H301.88C309.369 351.895 319.709 335.795 340.98 335.795C343.908 335.842 346.797 336.482 349.471 337.676C352.146 338.871 354.55 340.595 356.54 342.744C358.529 344.894 360.062 347.425 361.046 350.184C362.03 352.942 362.444 355.872 362.264 358.795C362.264 377.775 347.884 383.525 342.13 383.525C339.853 383.872 337.524 383.505 335.464 382.473C333.405 381.442 331.716 379.797 330.63 377.766C327.759 371.445 326.03 367.995 320.289 367.995C313.959 367.995 310.509 373.745 306.489 382.945C304.346 389.628 303.372 396.631 303.609 403.645C303.609 436.425 303.609 454.82 304.189 462.87C304.769 470.92 307.63 473.211 330.634 473.791L330.064 483.57C313.964 482.991 299.58 482.411 282.909 482.411C265.659 482.411 253.009 482.991 238.625 483.57L240.346 473.791C254.146 473.211 257.596 471.491 257.596 465.741C258.175 457.691 258.746 442.161 258.746 424.341V399.616H257.609V399.625ZM452.562 373.175C452.562 355.916 446.803 346.716 435.303 346.716C422.082 346.716 415.762 354.195 415.762 367.995C415.829 371.664 416.211 375.321 416.903 378.925C417.269 380.541 417.136 382.231 416.522 383.77C415.907 385.309 414.84 386.625 413.462 387.545C408.669 390.71 403.101 392.501 397.362 392.725C386.432 392.725 377.228 387.536 377.228 374.895C377.228 356.495 404.262 335.795 442.217 335.795C473.262 335.795 487.062 348.445 492.242 356.495C495.224 361.127 496.82 366.516 496.842 372.025V456.541C496.842 466.32 499.721 468.62 503.171 468.62C507.771 468.62 512.942 461.141 515.242 448.491L525.021 453.091C519.842 477.82 504.887 488.17 484.187 488.17C466.357 488.17 456.587 480.691 453.703 465.741C439.903 479.541 425.528 488.17 410.578 488.17C386.423 488.17 370.323 472.07 370.323 445.611C370.323 429.511 377.223 420.311 389.303 415.141C408.844 406.511 438.178 397.891 452.553 387.541V373.166L452.562 373.175ZM416.351 436.991C416.351 449.641 421.53 463.441 434.18 463.441C443.38 463.441 447.401 457.691 450.28 451.941C451.604 447.466 452.185 442.804 452.001 438.141V399.041C445.671 403.07 435.901 407.67 428.417 412.27C421.521 416.875 416.351 422.616 416.351 436.991ZM530.215 340.975L548.615 341.545V332.345C549.194 308.195 554.944 290.366 567.594 277.72C573.031 272.116 579.564 267.692 586.785 264.724C594.007 261.756 601.763 260.308 609.569 260.47C633.153 260.47 645.803 271.97 645.803 286.92C645.803 297.85 636.603 305.32 623.94 305.32C622.405 305.413 620.869 305.179 619.431 304.634C617.994 304.089 616.689 303.245 615.602 302.158C614.515 301.071 613.671 299.766 613.126 298.328C612.581 296.891 612.347 295.355 612.44 293.82C612.44 281.75 610.719 271.98 602.099 271.98C596.34 271.98 592.899 277.15 591.74 286.93C590.599 296.13 592.319 313.38 593.469 340.395H621.653L619.924 351.895L593.469 353.625C592.89 364.545 592.89 383.525 592.89 405.941C592.89 427.22 592.89 446.191 593.469 461.141C594.049 468.62 595.199 471.491 601.519 472.07C606.673 472.713 611.856 473.094 617.049 473.211L615.88 482.991C604.96 482.991 587.705 481.841 572.755 481.841C557.226 481.841 538.821 482.991 528.471 482.991L529.051 473.211C544.001 472.641 546.301 470.911 546.88 464.591C548.021 454.811 548.021 439.861 548.021 419.741V353.045L528.48 351.895L530.201 340.966L530.215 340.975Z" fill="#FEC63E"/>
<path d="M727.384 340.952L726.225 351.868L691.141 354.168C691.141 366.248 690.561 384.068 690.561 408.223C690.561 433.523 690.561 450.777 691.72 461.123C692.291 468.602 695.161 472.052 700.92 472.052C712.991 472.052 720.466 458.823 723.345 446.752H727.945L731.984 459.968C725.084 476.648 707.82 488.152 682.52 488.152C668.72 488.152 656.645 483.552 650.895 476.652C646.628 470.637 644.593 463.321 645.141 455.966C645.141 432.368 646.291 379.468 646.291 354.168L627.891 352.438L629.041 341.518H646.291C646.87 330.588 646.87 317.934 646.87 306.434C661.983 303.011 676.513 297.396 690 289.768L693.45 290.348C692.444 307.389 691.868 324.447 691.72 341.523H727.384V340.943V340.952Z" fill="#FEC63E"/>
<path d="M874 45.6274V520.173H46V45.6274H874ZM920 0H0V565.8H920V0Z" fill="#FEC63E"/>
</svg>
