<svg width="1440" height="886" viewBox="0 0 1440 886" fill="none" xmlns="http://www.w3.org/2000/svg">
<path d="M131.415 130.507C153.922 129.614 208.822 127.814 236.736 121.507C235.829 133.214 234.029 169.214 234.029 237.607V268.207C259.229 247.5 279.943 236.7 305.143 236.7C317.898 236.206 330.564 239.012 341.916 244.847C353.268 250.682 362.922 259.348 369.943 270.007C382.415 292.239 388.635 317.433 387.943 342.914C387.943 426.6 348.343 474.307 268.222 474.307C246.359 473.827 224.861 468.604 205.215 459C194.415 462.6 180.015 469.8 165.615 474.307L161.107 471.6C162.015 447.293 162.015 401.4 162.015 339.3V224.1C162.015 195.3 161.107 175.5 160.215 158.407C159.307 146.7 156.615 144.9 129.607 144.9L131.415 130.507ZM268.215 457.2C298.822 457.2 313.222 420.293 313.222 351.9C314.208 329.026 309.896 306.233 300.622 285.3C297.952 279.933 293.847 275.41 288.764 272.232C283.68 269.055 277.816 267.348 271.822 267.3C265.076 267.636 258.514 269.616 252.708 273.067C246.902 276.518 242.027 281.335 238.507 287.1C234.015 293.407 232.215 298.807 232.215 369.9C232.215 428.407 234.922 430.207 238.522 437.407C240.991 443.253 245.123 448.245 250.404 451.764C255.685 455.282 261.883 457.173 268.229 457.2H268.215ZM545.415 468.907C526.507 468.907 507.607 467.093 477.9 467.093C446.4 467.093 431.1 468.907 415.8 468.907V453.6C441 452.693 444.6 448.2 445.507 438.293C446.4 427.493 447.307 410.4 447.307 382.493V324.893C447.307 301.493 447.307 282.6 446.4 274.493C445.493 266.385 441.893 263.693 418.493 264.6V249.3C450.007 246.607 487.807 245.7 518.415 239.407C517.507 251.114 516.615 272.714 516.615 322.207V384.314C516.615 413.114 517.522 425.714 518.415 438.314C519.307 450.914 522.922 452.714 545.415 455.407V468.907ZM477.951 135.014C501.365 135.014 514.865 148.521 514.865 172.814C514.865 193.521 499.558 207.921 476.151 207.921C471.482 208.143 466.818 207.387 462.458 205.701C458.099 204.016 454.14 201.437 450.835 198.132C447.53 194.826 444.953 190.867 443.268 186.507C441.583 182.147 440.828 177.483 441.051 172.814C440.751 167.848 441.494 162.873 443.231 158.211C444.968 153.548 447.661 149.3 451.138 145.74C454.614 142.181 458.797 139.387 463.417 137.54C468.037 135.693 472.993 134.833 477.965 135.014H477.951ZM568.865 130.507C601.75 129.942 634.547 126.934 666.987 121.507C665.767 158.693 665.163 195.893 665.172 233.107V345.607C682.279 341.1 719.172 296.1 733.572 270.007C736.279 264.607 736.279 261.9 729.079 261.9L709.279 260.1V244.807C742.594 245.714 776.794 243.9 811.001 242.1V257.407C785.801 260.114 775.887 261.914 765.979 270.007C750.487 283.918 736.047 298.96 722.779 315.007C733.579 337.514 778.601 420.307 795.694 442.8C798.177 446.408 801.56 449.303 805.509 451.198C809.457 453.092 813.833 453.92 818.201 453.6L830.787 454.507L829.894 469.8C796.498 469.097 763.097 470.902 729.972 475.2C719.172 450 686.772 388.8 676.872 369.9C671.472 360.007 668.765 356.407 665.165 357.3C665.165 394.207 664.272 412.207 666.072 438.293C666.979 450 669.672 453.6 693.979 454.493V469.8C676.872 469.8 658.865 468 629.179 468C594.065 468 578.779 469.8 565.265 469.8V454.493C588.665 453.6 592.265 449.107 593.172 440.093C594.065 429.293 594.958 405.893 594.958 359.1V243.007C594.958 206.1 594.958 178.207 594.065 154.814C594.065 149.414 590.465 146.712 583.265 146.707H567.958L568.865 130.507ZM351.951 691.185C336.643 739.785 306.943 763.185 257.429 763.185C215.115 763.185 188.115 751.478 169.222 726.278C154.822 707.385 147.622 679.478 147.622 647.985C147.622 578.678 189.936 525.585 267.343 525.585C314.143 525.585 348.351 547.185 348.351 582.293C348.351 606.585 328.551 616.478 312.351 616.478C306.085 616.381 299.927 614.844 294.351 611.985C291.632 610.388 289.529 607.923 288.38 604.986C287.23 602.049 287.102 598.811 288.014 595.793C289.36 589.562 290.265 583.244 290.722 576.885C290.722 554.393 282.615 543.593 265.522 543.593C237.615 543.593 223.215 584.1 223.215 639.9C223.215 662.393 225.922 687.593 234.015 702.885C243.015 723.593 257.414 735.285 279.022 735.285C306.022 735.285 323.136 719.993 335.736 684.885L351.951 691.185ZM403.215 625.5C403.632 604.459 402.728 583.413 400.507 562.485C400.451 561.163 400.119 559.868 399.531 558.682C398.944 557.496 398.116 556.446 397.098 555.6C396.081 554.753 394.898 554.129 393.625 553.768C392.352 553.406 391.018 553.315 389.707 553.5H373.507V538.193C400.507 537.285 437.422 535.485 463.507 527.393L466.215 529.193C468.014 539.993 469.815 566.1 470.722 582.3H472.507C484.229 550.793 500.414 525.593 533.707 525.593C538.291 525.666 542.813 526.667 546.999 528.537C551.185 530.406 554.948 533.105 558.062 536.47C561.176 539.834 563.575 543.795 565.115 548.113C566.655 552.431 567.304 557.017 567.022 561.593C567.022 591.3 544.515 600.3 535.507 600.3C531.943 600.843 528.298 600.268 525.074 598.654C521.851 597.039 519.207 594.465 517.507 591.285C513.015 581.393 510.307 575.993 501.322 575.993C491.415 575.993 486.014 584.993 479.722 599.393C476.368 609.853 474.843 620.814 475.215 631.793C475.215 683.1 475.215 711.893 476.122 724.493C477.029 737.093 481.507 740.678 517.515 741.585L516.622 756.893C491.422 755.985 468.907 755.078 442.815 755.078C415.815 755.078 396.014 755.985 373.5 756.893L376.193 741.585C397.793 740.678 403.193 737.985 403.193 728.985C404.1 716.385 404.993 692.078 404.993 664.185V625.485H403.215V625.5ZM708.358 584.1C708.358 557.085 699.343 542.685 681.343 542.685C660.651 542.685 650.758 554.393 650.758 575.993C650.863 581.736 651.46 587.459 652.543 593.1C653.117 595.63 652.909 598.274 651.947 600.683C650.985 603.092 649.315 605.153 647.158 606.593C639.656 611.546 630.941 614.35 621.958 614.7C604.85 614.7 590.443 606.578 590.443 586.793C590.443 557.993 632.758 525.593 692.165 525.593C740.758 525.593 762.358 545.393 770.465 557.993C775.134 565.243 777.632 573.677 777.665 582.3V714.585C777.665 729.893 782.172 733.493 787.572 733.493C794.772 733.493 802.865 721.785 806.465 701.985L821.772 709.185C813.665 747.893 790.258 764.093 757.858 764.093C729.951 764.093 714.658 752.385 710.143 728.985C688.543 750.585 666.043 764.093 642.643 764.093C604.836 764.093 579.636 738.893 579.636 697.478C579.636 672.278 590.436 657.878 609.343 649.785C639.929 636.278 685.843 622.785 708.343 606.585V584.085L708.358 584.1ZM651.679 683.985C651.679 703.785 659.787 725.385 679.587 725.385C693.987 725.385 700.279 716.385 704.787 707.385C706.858 700.381 707.768 693.084 707.479 685.785V624.585C697.572 630.893 682.279 638.093 670.565 645.293C659.772 652.5 651.679 661.485 651.679 683.985ZM829.901 533.7L858.701 534.593V520.193C859.608 482.393 868.608 454.485 888.408 434.693C896.917 425.921 907.143 418.996 918.447 414.351C929.75 409.706 941.89 407.439 954.108 407.693C991.023 407.693 1010.82 425.693 1010.82 449.093C1010.82 466.2 996.423 477.893 976.601 477.893C974.199 478.038 971.794 477.671 969.545 476.818C967.295 475.965 965.252 474.644 963.551 472.942C961.85 471.241 960.529 469.198 959.676 466.949C958.822 464.699 958.456 462.294 958.601 459.893C958.601 441 955.908 425.707 942.415 425.707C933.401 425.707 928.015 433.8 926.201 449.107C924.415 463.507 927.108 490.507 928.908 532.793H973.023L970.315 550.793L928.908 553.5C928.001 570.593 928.001 600.3 928.001 635.385C928.001 668.693 928.001 698.385 928.908 721.785C929.815 733.493 931.615 737.985 941.508 738.893C949.575 739.899 957.688 740.495 965.815 740.678L963.987 755.985C946.894 755.985 919.887 754.185 896.487 754.185C872.179 754.185 843.372 755.985 827.172 755.985L828.079 740.678C851.479 739.785 855.079 737.078 855.987 727.185C857.772 711.878 857.772 688.478 857.772 656.985V552.593L827.187 550.793L829.879 533.685L829.901 533.7Z" fill="#FEC63E"/>
<path d="M1138.51 533.664L1136.7 550.75L1081.79 554.35C1081.79 573.257 1080.88 601.15 1080.88 638.957C1080.88 678.557 1080.88 705.564 1082.69 721.757C1083.59 733.464 1088.08 738.864 1097.09 738.864C1115.99 738.864 1127.69 718.157 1132.19 699.264H1139.39L1145.71 719.95C1134.91 746.057 1107.89 764.064 1068.29 764.064C1046.69 764.064 1027.79 756.864 1018.79 746.064C1012.11 736.649 1008.93 725.198 1009.79 713.686C1009.79 676.75 1011.59 593.95 1011.59 554.35L982.786 551.643L984.586 534.55H1011.59C1012.49 517.443 1012.49 497.636 1012.49 479.636C1036.15 474.278 1058.89 465.489 1080 453.55L1085.4 454.457C1083.83 481.131 1082.92 507.831 1082.69 534.557H1138.51V533.65V533.664Z" fill="#FEC63E"/>
<path d="M1368 71.4168V814.183H72V71.4168H1368ZM1440 0H0V885.6H1440V0Z" fill="#FEC63E"/>
</svg>
