<svg width="1382" height="850" viewBox="0 0 1382 850" fill="none" xmlns="http://www.w3.org/2000/svg">
<path d="M1164.29 510.381L1162.6 526.305L1111.42 529.66C1111.42 547.282 1110.57 573.277 1110.57 608.513C1110.57 645.42 1110.57 670.589 1112.26 685.682C1113.1 696.592 1117.28 701.624 1125.69 701.624C1143.29 701.624 1154.2 682.327 1158.4 664.718H1165.11L1171 683.997C1160.93 708.329 1135.75 725.111 1098.84 725.111C1078.71 725.111 1061.1 718.4 1052.71 708.335C1046.49 699.56 1043.52 688.888 1044.32 678.159C1044.32 643.735 1045.99 566.567 1045.99 529.66L1019.15 527.136L1020.83 511.207H1045.99C1046.84 495.262 1046.84 476.803 1046.84 460.027C1068.89 455.034 1090.08 446.843 1109.76 435.716L1114.79 436.562C1113.32 461.421 1112.48 486.304 1112.26 511.214H1164.29V510.368V510.381Z" fill="#FEC63E"/>
<path d="M212.684 133.388C233.661 132.556 284.827 130.878 310.842 125C309.996 135.911 308.32 169.462 308.32 233.204V261.723C331.806 242.424 351.111 232.358 374.597 232.358C386.483 231.897 398.288 234.513 408.868 239.951C419.449 245.389 428.446 253.466 434.99 263.401C446.614 284.119 452.411 307.6 451.766 331.348C451.766 409.342 414.859 453.805 340.187 453.805C319.811 453.357 299.775 448.49 281.464 439.539C271.399 442.894 257.978 449.604 244.558 453.805L240.358 451.282C241.203 428.627 241.203 385.856 241.203 327.98V220.615C241.203 193.774 240.358 175.321 239.525 159.391C238.68 148.479 236.17 146.802 211 146.802L212.684 133.388ZM340.179 437.861C368.706 437.861 382.126 403.463 382.126 339.723C383.045 318.405 379.026 297.162 370.383 277.653C367.894 272.651 364.07 268.435 359.332 265.474C354.594 262.512 349.129 260.922 343.542 260.877C337.255 261.191 331.14 263.036 325.728 266.251C320.317 269.468 315.773 273.958 312.494 279.33C308.306 285.209 306.628 290.242 306.628 356.499C306.628 411.027 309.152 412.705 312.507 419.415C314.807 424.862 318.658 429.516 323.58 432.795C328.502 436.074 334.279 437.835 340.194 437.861H340.179ZM598.526 448.773C580.906 448.773 563.291 447.08 535.604 447.08C506.246 447.08 491.987 448.773 477.727 448.773V434.506C501.214 433.66 504.569 429.473 505.415 420.239C506.246 410.174 507.092 394.244 507.092 368.234V314.552C507.092 292.744 507.092 275.136 506.246 267.58C505.402 260.025 502.046 257.515 480.238 258.361V244.101C509.609 241.592 544.838 240.746 573.362 234.882C572.518 245.792 571.685 265.923 571.685 312.05V369.932C571.685 396.774 572.531 408.517 573.362 420.26C574.195 432.003 577.564 433.68 598.526 436.191V448.773ZM535.65 137.589C557.474 137.589 570.055 150.177 570.055 172.817C570.055 192.117 555.789 205.537 533.973 205.537C529.621 205.745 525.276 205.039 521.213 203.467C517.149 201.896 513.46 199.494 510.379 196.413C507.299 193.332 504.897 189.643 503.327 185.579C501.756 181.516 501.053 177.169 501.26 172.817C500.982 168.189 501.673 163.553 503.292 159.207C504.911 154.862 507.422 150.903 510.662 147.585C513.902 144.268 517.8 141.664 522.106 139.943C526.412 138.221 531.031 137.419 535.665 137.589H535.65ZM620.383 133.388C651.03 132.861 681.597 130.058 711.829 125C710.693 159.656 710.13 194.327 710.139 229.01V333.859C726.083 329.658 760.466 287.718 773.886 263.401C776.41 258.368 776.41 255.844 769.7 255.844L751.247 254.167V239.915C782.295 240.759 814.169 239.068 846.05 237.391V251.658C822.564 254.18 813.323 255.857 804.09 263.401C789.651 276.365 776.193 290.383 763.828 305.34C773.894 326.316 815.854 403.478 831.783 424.44C834.097 427.803 837.251 430.502 840.931 432.267C844.61 434.033 848.689 434.805 852.76 434.506L864.489 435.352L863.657 449.604C832.533 448.949 801.403 450.631 770.531 454.637C760.466 431.151 730.27 374.113 721.043 356.499C716.01 347.279 713.488 343.924 710.133 344.756C710.133 379.153 709.3 395.929 710.977 420.239C711.823 431.151 714.333 434.506 736.987 435.337V449.604C721.043 449.604 704.261 447.927 676.594 447.927C643.869 447.927 629.622 449.604 617.027 449.604V435.337C638.836 434.506 642.191 430.319 643.036 421.917C643.869 411.851 644.7 390.043 644.7 346.433V238.237C644.7 203.839 644.7 177.844 643.869 156.042C643.869 151.009 640.513 148.491 633.803 148.486H619.537L620.383 133.388ZM418.22 655.933C403.955 701.227 376.275 723.036 330.129 723.036C290.691 723.036 265.527 712.124 247.92 688.638C234.499 671.031 227.789 645.021 227.789 615.671C227.789 551.077 267.225 501.596 339.368 501.596C382.985 501.596 414.865 521.727 414.865 554.445C414.865 577.087 396.412 586.306 381.314 586.306C375.476 586.216 369.735 584.783 364.538 582.119C362.004 580.63 360.045 578.332 358.974 575.596C357.902 572.858 357.782 569.841 358.633 567.027C359.887 561.22 360.731 555.332 361.156 549.407C361.156 528.443 353.6 518.377 337.67 518.377C311.661 518.377 298.24 556.13 298.24 608.135C298.24 629.097 300.764 652.583 308.306 666.837C316.693 686.135 330.114 697.033 350.252 697.033C375.416 697.033 391.366 682.78 403.109 650.061L418.22 655.933ZM465.998 594.714C466.387 575.104 465.544 555.49 463.475 535.986C463.423 534.753 463.112 533.546 462.565 532.441C462.018 531.336 461.246 530.357 460.298 529.567C459.35 528.78 458.247 528.198 457.061 527.861C455.874 527.524 454.631 527.439 453.41 527.611H438.312V513.345C463.475 512.5 497.879 510.822 522.19 503.279L524.713 504.957C526.39 515.022 528.068 539.354 528.914 554.453H530.578C541.503 525.088 556.587 501.602 587.616 501.602C591.887 501.67 596.102 502.604 600.002 504.346C603.904 506.089 607.411 508.604 610.314 511.739C613.216 514.875 615.452 518.567 616.887 522.592C618.323 526.615 618.927 530.889 618.664 535.153C618.664 562.84 597.687 571.228 589.293 571.228C585.972 571.734 582.574 571.199 579.569 569.694C576.566 568.19 574.102 565.79 572.518 562.827C568.33 553.606 565.807 548.574 557.433 548.574C548.199 548.574 543.166 556.962 537.302 570.382C534.176 580.131 532.755 590.347 533.101 600.578C533.101 648.397 533.101 675.231 533.947 686.974C534.793 698.717 538.966 702.059 572.524 702.905L571.692 717.17C548.206 716.325 527.223 715.479 502.904 715.479C477.741 715.479 459.287 716.325 438.304 717.17L440.815 702.905C460.946 702.059 465.979 699.55 465.979 691.162C466.823 679.419 467.656 656.764 467.656 630.769V594.701H465.998V594.714ZM750.387 556.13C750.387 530.953 741.986 517.533 725.211 517.533C705.924 517.533 696.705 528.443 696.705 548.574C696.803 553.926 697.36 559.261 698.369 564.518C698.903 566.875 698.709 569.341 697.814 571.586C696.916 573.831 695.36 575.75 693.35 577.092C686.358 581.709 678.236 584.322 669.864 584.649C653.919 584.649 640.493 577.079 640.493 558.639C640.493 531.798 679.929 501.602 735.296 501.602C780.584 501.602 800.715 520.055 808.271 531.798C812.621 538.555 814.949 546.416 814.981 554.453V677.741C814.981 692.006 819.181 695.361 824.214 695.361C830.924 695.361 838.467 684.451 841.822 665.998L856.088 672.708C848.533 708.782 826.717 723.88 796.521 723.88C770.511 723.88 756.259 712.97 752.052 691.162C731.921 711.293 710.951 723.88 689.143 723.88C653.906 723.88 630.42 700.394 630.42 661.797C630.42 638.311 640.486 624.89 658.108 617.348C686.613 604.759 729.404 592.185 750.374 577.087V556.117L750.387 556.13ZM697.564 649.222C697.564 667.676 705.119 687.807 723.572 687.807C736.993 687.807 742.859 679.419 747.058 671.031C748.99 664.503 749.837 657.702 749.569 650.9V593.862C740.335 599.74 726.083 606.45 715.166 613.16C705.106 619.878 697.564 628.253 697.564 649.222ZM863.664 509.158L890.506 509.99V496.569C891.35 461.34 899.738 435.332 918.191 416.884C926.123 408.709 935.653 402.256 946.186 397.926C956.722 393.596 968.036 391.484 979.423 391.72C1013.83 391.72 1032.28 408.496 1032.28 430.305C1032.28 446.249 1018.86 457.146 1000.39 457.146C998.148 457.282 995.907 456.94 993.809 456.145C991.713 455.35 989.809 454.119 988.224 452.533C986.638 450.948 985.407 449.044 984.612 446.946C983.817 444.85 983.475 442.609 983.611 440.37C983.611 422.763 981.1 408.511 968.526 408.511C960.125 408.511 955.105 416.053 953.415 430.319C951.75 443.74 954.259 468.903 955.937 508.312H997.051L994.528 525.088L955.937 527.611C955.092 543.541 955.092 571.228 955.092 603.928C955.092 634.969 955.092 662.643 955.937 684.451C956.783 695.361 958.46 699.55 967.68 700.394C975.198 701.332 982.759 701.888 990.334 702.059L988.629 716.325C972.699 716.325 947.529 714.648 925.72 714.648C903.067 714.648 876.219 716.325 861.12 716.325L861.966 702.059C883.775 701.227 887.13 698.703 887.975 689.484C889.639 675.217 889.639 653.409 889.639 624.059V526.765L861.133 525.088L863.644 509.145L863.664 509.158Z" fill="#FEC63E"/>
<mask id="path-3-inside-1" fill="white">
<rect width="1381.63" height="850" rx="10"/>
</mask>
<rect width="1381.63" height="850" rx="10" stroke="#FEC63E" stroke-width="120" mask="url(#path-3-inside-1)"/>
</svg>
