<svg width="600" height="370" viewBox="0 0 600 370" fill="none" xmlns="http://www.w3.org/2000/svg">
<mask id="path-1-inside-1" fill="white">
<rect width="600" height="369.13" rx="10"/>
</mask>
<rect width="600" height="369.13" rx="10" stroke="#FEC63E" stroke-width="40" mask="url(#path-1-inside-1)"/>
<path d="M497.204 220.575L496.5 227.21L475.175 228.608C475.175 235.951 474.822 246.782 474.822 261.464C474.822 276.842 474.822 287.329 475.527 293.617C475.874 298.163 477.618 300.26 481.119 300.26C488.456 300.26 492.999 292.219 494.749 284.882H497.545L500 292.915C495.806 303.054 485.313 310.046 469.935 310.046C461.547 310.046 454.208 307.25 450.713 303.056C448.119 299.4 446.882 294.953 447.215 290.483C447.215 276.14 447.914 243.986 447.914 228.608L436.73 227.557L437.429 220.919H447.914C448.266 214.276 448.266 206.585 448.266 199.595C457.452 197.514 466.284 194.101 474.481 189.465L476.578 189.817C475.967 200.175 475.617 210.543 475.527 220.922H497.204V220.57V220.575Z" fill="#FEC63E"/>
<path d="M100.702 63.4949C109.442 63.1482 130.761 62.4493 141.601 60C141.248 64.5462 140.55 78.5259 140.55 105.085V116.968C150.336 108.927 158.38 104.733 168.166 104.733C173.118 104.541 178.037 105.63 182.445 107.896C186.854 110.162 190.603 113.528 193.329 117.667C198.172 126.3 200.588 136.083 200.319 145.978C200.319 178.476 184.941 197.002 153.828 197.002C145.338 196.816 136.989 194.787 129.36 191.058C125.166 192.456 119.574 195.252 113.982 197.002L112.232 195.951C112.584 186.511 112.584 168.69 112.584 144.575V99.8397C112.584 88.6558 112.232 80.9669 111.885 74.3296C111.534 69.7831 110.487 69.0841 100 69.0841L100.702 63.4949ZM153.825 190.359C165.711 190.359 171.303 176.026 171.303 149.468C171.685 140.585 170.011 131.734 166.41 123.605C165.373 121.521 163.779 119.764 161.805 118.531C159.831 117.297 157.554 116.634 155.226 116.615C152.606 116.746 150.058 117.515 147.803 118.855C145.549 120.195 143.655 122.066 142.289 124.304C140.544 126.754 139.845 128.851 139.845 156.458C139.845 179.178 140.897 179.877 142.295 182.673C143.253 184.942 144.858 186.881 146.908 188.248C148.959 189.614 151.366 190.348 153.831 190.359H153.825ZM261.469 194.905C254.127 194.905 246.788 194.2 235.252 194.2C223.019 194.2 217.078 194.905 211.136 194.905V188.961C220.922 188.608 222.32 186.864 222.673 183.016C223.019 178.822 223.372 172.185 223.372 161.348V138.98C223.372 129.893 223.372 122.557 223.019 119.408C222.667 116.26 221.269 115.214 212.183 115.567V109.625C224.42 108.58 239.099 108.228 250.984 105.784C250.632 110.33 250.285 118.718 250.285 137.938V162.055C250.285 173.239 250.638 178.132 250.984 183.025C251.331 187.918 252.735 188.617 261.469 189.663V194.905ZM235.271 65.2452C244.364 65.2452 249.606 70.4904 249.606 79.9239C249.606 87.9653 243.662 93.5573 234.572 93.5573C232.759 93.6436 230.948 93.3494 229.255 92.6948C227.562 92.0401 226.025 91.0391 224.741 89.7554C223.458 88.4717 222.457 86.9345 221.803 85.2411C221.148 83.5483 220.855 81.737 220.942 79.9239C220.826 77.9953 221.114 76.0637 221.788 74.253C222.463 72.4424 223.509 70.7929 224.859 69.4105C226.209 68.0282 227.833 66.9435 229.627 66.2261C231.422 65.5088 233.346 65.1746 235.277 65.2452H235.271ZM270.576 63.4949C283.346 63.2755 296.082 62.1073 308.679 60C308.205 74.4402 307.971 88.8862 307.974 103.338V147.024C314.618 145.274 328.944 127.799 334.536 117.667C335.588 115.57 335.588 114.518 332.792 114.518L325.103 113.819V107.881C338.039 108.233 351.32 107.529 364.604 106.83V112.774C354.818 113.825 350.968 114.524 347.121 117.667C341.105 123.069 335.497 128.91 330.345 135.142C334.539 143.881 352.022 176.033 358.66 184.767C359.624 186.168 360.938 187.292 362.471 188.028C364.004 188.764 365.704 189.085 367.4 188.961L372.287 189.313L371.94 195.252C358.972 194.979 346.001 195.68 333.138 197.349C328.944 187.563 316.362 163.797 312.518 156.458C310.421 152.616 309.37 151.218 307.972 151.565C307.972 165.897 307.625 172.887 308.324 183.016C308.676 187.563 309.722 188.961 319.161 189.307V195.252C312.518 195.252 305.526 194.553 293.998 194.553C280.362 194.553 274.426 195.252 269.178 195.252V189.307C278.265 188.961 279.663 187.216 280.015 183.715C280.362 179.521 280.708 170.435 280.708 152.264V107.182C280.708 92.8498 280.708 82.0185 280.362 72.9341C280.362 70.8371 278.964 69.7877 276.168 69.7858H270.224L270.576 63.4949ZM186.342 281.222C180.398 300.095 168.865 309.181 149.637 309.181C133.205 309.181 122.72 304.635 115.383 294.849C109.791 287.513 106.995 276.675 106.995 264.446C106.995 237.532 123.427 216.915 153.487 216.915C171.661 216.915 184.944 225.303 184.944 238.935C184.944 248.369 177.255 252.211 170.964 252.211C168.532 252.173 166.14 251.576 163.974 250.466C162.918 249.846 162.102 248.888 161.656 247.748C161.209 246.607 161.159 245.35 161.514 244.178C162.036 241.758 162.388 239.305 162.565 236.836C162.565 228.101 159.417 223.907 152.779 223.907C141.942 223.907 136.35 239.637 136.35 261.306C136.35 270.04 137.402 279.826 140.544 285.765C144.039 293.806 149.631 298.347 158.022 298.347C168.507 298.347 175.152 292.408 180.045 278.775L186.342 281.222ZM206.249 255.714C206.411 247.543 206.06 239.371 205.198 231.244C205.176 230.731 205.047 230.227 204.819 229.767C204.591 229.306 204.269 228.899 203.874 228.57C203.479 228.242 203.02 227.999 202.526 227.859C202.031 227.718 201.513 227.683 201.004 227.755H194.713V221.81C205.198 221.458 219.533 220.759 229.663 217.616L230.714 218.315C231.413 222.509 232.112 232.648 232.464 238.939H233.158C237.71 226.703 243.994 216.917 256.923 216.917C258.703 216.946 260.459 217.335 262.084 218.061C263.71 218.787 265.171 219.835 266.381 221.141C267.59 222.448 268.522 223.986 269.12 225.663C269.718 227.34 269.969 229.12 269.86 230.897C269.86 242.433 261.12 245.928 257.622 245.928C256.238 246.139 254.823 245.916 253.571 245.289C252.319 244.662 251.292 243.662 250.632 242.428C248.887 238.586 247.836 236.489 244.347 236.489C240.499 236.489 238.403 239.984 235.959 245.576C234.657 249.638 234.065 253.894 234.209 258.158C234.209 278.082 234.209 289.263 234.561 294.156C234.914 299.049 236.653 300.441 250.635 300.794L250.288 306.737C240.503 306.386 231.76 306.033 221.627 306.033C211.142 306.033 203.453 306.386 194.71 306.737L195.756 300.794C204.144 300.441 206.241 299.396 206.241 295.901C206.593 291.008 206.94 281.568 206.94 270.737V255.709H206.249V255.714ZM324.745 239.637C324.745 229.147 321.244 223.555 314.254 223.555C306.218 223.555 302.377 228.101 302.377 236.489C302.418 238.719 302.65 240.942 303.071 243.132C303.293 244.115 303.212 245.142 302.839 246.077C302.465 247.013 301.817 247.813 300.979 248.372C298.066 250.296 294.681 251.384 291.193 251.52C284.55 251.52 278.955 248.366 278.955 240.683C278.955 229.499 295.387 216.917 318.457 216.917C337.327 216.917 345.714 224.606 348.863 229.499C350.675 232.315 351.645 235.59 351.659 238.939V290.309C351.659 296.253 353.409 297.651 355.506 297.651C358.302 297.651 361.445 293.105 362.843 285.416L368.786 288.212C365.639 303.242 356.549 309.533 343.967 309.533C333.13 309.533 327.191 304.988 325.438 295.901C317.05 304.289 308.313 309.533 299.226 309.533C284.544 309.533 274.758 299.748 274.758 283.665C274.758 273.879 278.952 268.288 286.295 265.145C298.172 259.9 316.002 254.66 324.739 248.369V239.632L324.745 239.637ZM302.735 278.426C302.735 286.115 305.883 294.503 313.572 294.503C319.164 294.503 321.608 291.008 323.358 287.513C324.162 284.793 324.516 281.959 324.404 279.125V255.359C320.556 257.808 314.618 260.604 310.069 263.4C305.877 266.199 302.735 269.689 302.735 278.426ZM371.944 220.066L383.127 220.412V214.82C383.479 200.142 386.974 189.305 394.663 181.618C397.968 178.212 401.939 175.523 406.328 173.719C410.717 171.915 415.432 171.035 420.176 171.134C434.511 171.134 442.2 178.123 442.2 187.21C442.2 193.854 436.608 198.394 428.911 198.394C427.978 198.451 427.045 198.308 426.171 197.977C425.297 197.646 424.504 197.133 423.843 196.472C423.182 195.811 422.669 195.018 422.338 194.144C422.007 193.271 421.865 192.337 421.921 191.404C421.921 184.068 420.875 178.129 415.636 178.129C412.135 178.129 410.044 181.272 409.339 187.216C408.646 192.808 409.691 203.293 410.39 219.713H427.521L426.47 226.703L410.39 227.755C410.038 234.392 410.038 245.928 410.038 259.553C410.038 272.487 410.038 284.018 410.39 293.105C410.743 297.651 411.442 299.396 415.283 299.748C418.416 300.138 421.566 300.37 424.723 300.441L424.012 306.386C417.375 306.386 406.887 305.687 397.8 305.687C388.361 305.687 377.174 306.386 370.883 306.386L371.236 300.441C380.323 300.095 381.721 299.043 382.073 295.202C382.766 289.257 382.766 280.17 382.766 267.941V227.402L370.889 226.703L371.935 220.06L371.944 220.066Z" fill="#FEC63E"/>
</svg>
