<svg width="1440" height="820" viewBox="0 0 1440 820" fill="none" xmlns="http://www.w3.org/2000/svg">
<path d="M1163.71 490.295L1162.12 505.223L1114.14 508.369C1114.14 524.889 1113.35 549.26 1113.35 582.294C1113.35 616.894 1113.35 640.49 1114.94 654.639C1115.72 664.867 1119.64 669.586 1127.52 669.586C1144.03 669.586 1154.25 651.494 1158.19 634.986H1164.48L1170 653.06C1160.56 675.871 1136.95 691.604 1102.35 691.604C1083.48 691.604 1066.97 685.313 1059.1 675.876C1053.27 667.65 1050.49 657.645 1051.23 647.587C1051.23 615.314 1052.81 542.969 1052.81 508.369L1027.64 506.003L1029.22 491.069H1052.81C1053.6 476.121 1053.6 458.816 1053.6 443.088C1074.27 438.407 1094.14 430.728 1112.58 420.296L1117.3 421.089C1115.93 444.394 1115.14 467.723 1114.94 491.076H1163.71V490.282V490.295Z" fill="#FEC63E"/>
<path d="M271.579 136.864C291.244 136.084 339.213 134.511 363.602 129C362.809 139.229 361.238 170.683 361.238 230.442V257.178C383.256 239.085 401.354 229.648 423.373 229.648C434.516 229.216 445.582 231.668 455.501 236.767C465.42 241.865 473.856 249.437 479.991 258.751C490.888 278.174 496.323 300.187 495.718 322.451C495.718 395.571 461.118 437.255 391.113 437.255C372.01 436.835 353.226 432.272 336.06 423.88C326.624 427.025 314.042 433.316 301.46 437.255L297.523 434.889C298.315 413.65 298.315 373.553 298.315 319.294V218.639C298.315 193.476 297.523 176.176 296.742 161.242C295.95 151.012 293.597 149.439 270 149.439L271.579 136.864ZM391.106 422.307C417.849 422.307 430.431 390.06 430.431 330.303C431.292 310.317 427.525 290.402 419.422 272.112C417.089 267.422 413.503 263.47 409.061 260.694C404.619 257.918 399.496 256.427 394.258 256.385C388.364 256.679 382.631 258.409 377.557 261.423C372.485 264.438 368.225 268.648 365.15 273.685C361.224 279.196 359.651 283.914 359.651 346.03C359.651 397.15 362.017 398.723 365.163 405.014C367.319 410.121 370.93 414.483 375.544 417.558C380.158 420.632 385.574 422.283 391.119 422.307H391.106ZM633.306 432.537C616.786 432.537 600.273 430.95 574.316 430.95C546.793 430.95 533.425 432.537 520.057 432.537V419.162C542.075 418.369 545.221 414.444 546.014 405.787C546.793 396.35 547.587 381.416 547.587 357.032V306.705C547.587 286.26 547.587 269.753 546.793 262.669C546.002 255.586 542.856 253.232 522.411 254.026V240.657C549.946 238.305 582.973 237.512 609.715 232.014C608.923 242.242 608.142 261.115 608.142 304.36V358.624C608.142 383.788 608.935 394.797 609.715 405.806C610.496 416.815 613.653 418.388 633.306 420.741V432.537ZM574.36 140.802C594.819 140.802 606.614 152.603 606.614 173.829C606.614 191.922 593.239 204.504 572.787 204.504C568.708 204.698 564.634 204.036 560.825 202.563C557.015 201.09 553.556 198.838 550.668 195.95C547.781 193.061 545.528 189.603 544.057 185.793C542.584 181.984 541.925 177.908 542.119 173.829C541.858 169.489 542.506 165.143 544.024 161.069C545.542 156.995 547.896 153.284 550.933 150.174C553.97 147.063 557.625 144.623 561.662 143.009C565.699 141.395 570.029 140.643 574.373 140.802H574.36ZM653.796 136.864C682.528 136.37 711.184 133.741 739.528 129C738.462 161.49 737.934 193.994 737.942 226.51V324.805C752.89 320.866 785.124 281.548 797.706 258.751C800.072 254.032 800.072 251.666 793.781 251.666L776.481 250.094V236.732C805.589 237.524 835.471 235.939 865.359 234.366V247.742C843.341 250.106 834.677 251.679 826.022 258.751C812.486 270.904 799.868 284.047 788.277 298.069C797.713 317.733 837.05 390.073 851.984 409.725C854.153 412.878 857.11 415.408 860.56 417.063C864.009 418.719 867.833 419.442 871.65 419.162L882.646 419.955L881.866 433.316C852.687 432.702 823.503 434.279 794.561 438.035C785.124 416.016 756.815 362.544 748.165 346.03C743.447 337.387 741.082 334.241 737.937 335.021C737.937 367.269 737.156 382.996 738.729 405.787C739.522 416.016 741.874 419.162 763.113 419.941V433.316C748.165 433.316 732.432 431.744 706.495 431.744C675.814 431.744 662.458 433.316 650.651 433.316V419.941C671.096 419.162 674.242 415.237 675.033 407.36C675.814 397.923 676.594 377.478 676.594 336.594V235.16C676.594 202.912 676.594 178.542 675.814 158.102C675.814 153.384 672.669 151.022 666.378 151.018H653.003L653.796 136.864ZM464.269 626.749C450.895 669.213 424.945 689.658 381.683 689.658C344.71 689.658 321.119 679.429 304.613 657.411C292.031 640.904 285.74 616.52 285.74 589.004C285.74 528.447 322.711 482.059 390.345 482.059C431.236 482.059 461.124 500.931 461.124 531.605C461.124 552.831 443.824 561.474 429.669 561.474C424.196 561.39 418.814 560.047 413.942 557.549C411.566 556.153 409.73 553.999 408.726 551.434C407.721 548.867 407.608 546.038 408.406 543.4C409.582 537.956 410.372 532.436 410.772 526.881C410.772 507.228 403.688 497.791 388.754 497.791C364.369 497.791 351.788 533.184 351.788 581.939C351.788 601.591 354.154 623.609 361.224 636.972C369.088 655.064 381.669 665.281 400.549 665.281C424.14 665.281 439.093 651.918 450.102 621.245L464.269 626.749ZM509.06 569.357C509.425 550.973 508.635 532.584 506.696 514.299C506.646 513.144 506.355 512.011 505.842 510.976C505.329 509.94 504.606 509.022 503.717 508.282C502.828 507.544 501.794 506.998 500.682 506.682C499.569 506.366 498.404 506.287 497.259 506.448H483.105V493.073C506.696 492.281 538.949 490.709 561.741 483.637L564.106 485.209C565.678 494.646 567.251 517.457 568.044 531.612H569.605C579.847 504.082 593.987 482.064 623.077 482.064C627.082 482.128 631.033 483.004 634.69 484.636C638.348 486.271 641.636 488.628 644.357 491.567C647.077 494.508 649.174 497.969 650.519 501.742C651.865 505.514 652.431 509.521 652.185 513.519C652.185 539.475 632.519 547.339 624.65 547.339C621.536 547.814 618.351 547.312 615.534 545.9C612.718 544.49 610.408 542.241 608.923 539.463C604.997 530.818 602.632 526.1 594.781 526.1C586.124 526.1 581.406 533.964 575.908 546.546C572.977 555.685 571.645 565.263 571.969 574.855C571.969 619.684 571.969 644.841 572.762 655.85C573.556 666.859 577.468 669.992 608.928 670.786L608.149 684.159C586.131 683.367 566.459 682.574 543.66 682.574C520.069 682.574 502.769 683.367 483.098 684.159L485.452 670.786C504.324 669.992 509.042 667.64 509.042 659.777C509.834 648.768 510.615 627.529 510.615 603.158V569.345H509.06V569.357ZM775.676 533.184C775.676 509.581 767.8 496.999 752.072 496.999C733.991 496.999 725.348 507.228 725.348 526.1C725.44 531.118 725.962 536.119 726.909 541.048C727.409 543.258 727.227 545.569 726.388 547.674C725.547 549.779 724.087 551.579 722.203 552.837C715.648 557.165 708.033 559.614 700.185 559.921C685.237 559.921 672.65 552.824 672.65 535.537C672.65 510.373 709.621 482.064 761.528 482.064C803.985 482.064 822.857 499.364 829.941 510.373C834.02 516.708 836.202 524.078 836.232 531.612V647.195C836.232 660.568 840.17 663.714 844.888 663.714C851.179 663.714 858.251 653.486 861.396 636.186L874.77 642.477C867.687 676.296 847.235 690.45 818.926 690.45C794.541 690.45 781.18 680.222 777.236 659.777C758.363 678.649 738.704 690.45 718.259 690.45C685.225 690.45 663.207 668.432 663.207 632.247C663.207 610.229 672.643 597.647 689.163 590.577C715.887 578.774 756.004 566.986 775.663 552.831V533.172L775.676 533.184ZM726.154 620.458C726.154 637.758 733.237 656.631 750.537 656.631C763.118 656.631 768.617 648.768 772.555 640.904C774.365 634.784 775.16 628.408 774.908 622.031V568.558C766.252 574.068 752.89 580.359 742.655 586.65C733.224 592.948 726.154 600.799 726.154 620.458ZM881.873 489.148L907.036 489.928V477.346C907.828 444.319 915.692 419.936 932.992 402.641C940.428 394.977 949.362 388.927 959.237 384.868C969.114 380.809 979.721 378.829 990.396 379.05C1022.65 379.05 1039.95 394.778 1039.95 415.223C1039.95 430.171 1027.37 440.387 1010.05 440.387C1007.95 440.514 1005.85 440.194 1003.88 439.449C1001.92 438.703 1000.13 437.549 998.647 436.062C997.161 434.576 996.006 432.791 995.261 430.825C994.516 428.859 994.196 426.759 994.323 424.66C994.323 408.153 991.969 394.791 980.181 394.791C972.305 394.791 967.599 401.862 966.014 415.237C964.453 427.819 966.806 451.41 968.378 488.355H1006.92L1004.56 504.082L968.378 506.448C967.586 521.382 967.586 547.339 967.586 577.995C967.586 607.096 967.586 633.04 968.378 653.486C969.171 663.714 970.744 667.64 979.387 668.432C986.436 669.311 993.524 669.832 1000.63 669.992L999.027 683.368C984.093 683.368 960.496 681.795 940.05 681.795C918.813 681.795 893.642 683.368 879.488 683.368L880.281 669.992C900.726 669.213 903.872 666.847 904.664 658.204C906.224 644.829 906.224 624.383 906.224 596.868V505.655L879.5 504.082L881.854 489.136L881.873 489.148Z" fill="#FEC63E"/>
<mask id="path-3-inside-1" fill="white">
<rect width="1440" height="820" rx="10"/>
</mask>
<rect width="1440" height="820" rx="10" stroke="#FEC63E" stroke-width="120" mask="url(#path-3-inside-1)"/>
</svg>
