<svg width="1440" height="886" viewBox="0 0 1440 886" fill="none" xmlns="http://www.w3.org/2000/svg">
<mask id="path-1-inside-1" fill="white">
<rect width="1440" height="885.913" rx="10"/>
</mask>
<rect width="1440" height="885.913" rx="10" stroke="#FEC63E" stroke-width="120" mask="url(#path-1-inside-1)"/>
<path d="M1193.29 529.381L1191.6 545.305L1140.42 548.66C1140.42 566.282 1139.57 592.277 1139.57 627.513C1139.57 664.42 1139.57 689.589 1141.26 704.682C1142.1 715.592 1146.28 720.624 1154.69 720.624C1172.29 720.624 1183.2 701.327 1187.4 683.718H1194.11L1200 702.997C1189.93 727.329 1164.75 744.111 1127.84 744.111C1107.71 744.111 1090.1 737.4 1081.71 727.335C1075.49 718.56 1072.52 707.888 1073.32 697.159C1073.32 662.735 1074.99 585.567 1074.99 548.66L1048.15 546.136L1049.83 530.207H1074.99C1075.84 514.262 1075.84 495.803 1075.84 479.027C1097.89 474.034 1119.08 465.843 1138.76 454.716L1143.79 455.562C1142.32 480.421 1141.48 505.304 1141.26 530.214H1193.29V529.368V529.381Z" fill="#FEC63E"/>
<path d="M241.684 152.388C262.661 151.556 313.827 149.878 339.842 144C338.996 154.911 337.32 188.462 337.32 252.204V280.723C360.806 261.424 380.111 251.358 403.597 251.358C415.483 250.897 427.288 253.513 437.868 258.951C448.449 264.389 457.446 272.466 463.99 282.401C475.614 303.119 481.411 326.6 480.766 350.348C480.766 428.342 443.859 472.805 369.187 472.805C348.811 472.357 328.775 467.49 310.464 458.539C300.399 461.894 286.978 468.604 273.558 472.805L269.358 470.282C270.203 447.627 270.203 404.856 270.203 346.98V239.615C270.203 212.774 269.358 194.321 268.525 178.391C267.68 167.479 265.17 165.802 240 165.802L241.684 152.388ZM369.179 456.861C397.706 456.861 411.126 422.463 411.126 358.723C412.045 337.405 408.026 316.162 399.383 296.653C396.894 291.651 393.07 287.435 388.332 284.474C383.594 281.512 378.129 279.922 372.542 279.877C366.255 280.191 360.14 282.036 354.728 285.251C349.317 288.468 344.773 292.958 341.494 298.33C337.306 304.209 335.628 309.242 335.628 375.499C335.628 430.027 338.152 431.705 341.507 438.415C343.807 443.862 347.658 448.516 352.58 451.795C357.502 455.074 363.279 456.835 369.194 456.861H369.179ZM627.526 467.773C609.906 467.773 592.291 466.08 564.604 466.08C535.246 466.08 520.987 467.773 506.727 467.773V453.506C530.214 452.66 533.569 448.473 534.415 439.239C535.246 429.174 536.092 413.244 536.092 387.234V333.552C536.092 311.744 536.092 294.136 535.246 286.58C534.402 279.025 531.046 276.515 509.238 277.361V263.101C538.609 260.592 573.838 259.746 602.362 253.882C601.518 264.792 600.685 284.923 600.685 331.05V388.932C600.685 415.774 601.531 427.517 602.362 439.26C603.195 451.003 606.564 452.68 627.526 455.191V467.773ZM564.65 156.589C586.474 156.589 599.055 169.177 599.055 191.817C599.055 211.117 584.789 224.537 562.973 224.537C558.621 224.745 554.276 224.039 550.213 222.467C546.149 220.896 542.46 218.494 539.379 215.413C536.299 212.332 533.897 208.643 532.327 204.579C530.756 200.516 530.053 196.169 530.26 191.817C529.982 187.189 530.673 182.553 532.292 178.207C533.911 173.862 536.422 169.903 539.662 166.585C542.902 163.268 546.8 160.664 551.106 158.943C555.412 157.221 560.031 156.419 564.665 156.589H564.65ZM649.383 152.388C680.03 151.861 710.597 149.058 740.829 144C739.693 178.656 739.13 213.327 739.139 248.01V352.859C755.083 348.658 789.466 306.718 802.886 282.401C805.41 277.368 805.41 274.844 798.7 274.844L780.247 273.167V258.915C811.295 259.759 843.169 258.068 875.05 256.391V270.658C851.564 273.18 842.323 274.857 833.09 282.401C818.651 295.365 805.193 309.383 792.828 324.34C802.894 345.316 844.854 422.478 860.783 443.44C863.097 446.803 866.251 449.502 869.931 451.267C873.61 453.033 877.689 453.805 881.76 453.506L893.489 454.352L892.657 468.604C861.533 467.949 830.403 469.631 799.531 473.637C789.466 450.151 759.27 393.113 750.043 375.499C745.01 366.279 742.488 362.924 739.133 363.756C739.133 398.153 738.3 414.929 739.977 439.239C740.823 450.151 743.333 453.506 765.987 454.337V468.604C750.043 468.604 733.261 466.927 705.594 466.927C672.869 466.927 658.622 468.604 646.027 468.604V454.337C667.836 453.506 671.191 449.319 672.036 440.917C672.869 430.851 673.7 409.043 673.7 365.433V257.237C673.7 222.839 673.7 196.844 672.869 175.042C672.869 170.009 669.513 167.491 662.803 167.486H648.537L649.383 152.388ZM447.22 674.933C432.955 720.227 405.275 742.036 359.129 742.036C319.691 742.036 294.527 731.124 276.92 707.638C263.499 690.031 256.789 664.021 256.789 634.671C256.789 570.077 296.225 520.596 368.368 520.596C411.985 520.596 443.865 540.727 443.865 573.445C443.865 596.087 425.412 605.306 410.314 605.306C404.476 605.216 398.735 603.783 393.538 601.119C391.004 599.63 389.045 597.332 387.974 594.596C386.902 591.858 386.782 588.841 387.633 586.027C388.887 580.22 389.731 574.332 390.156 568.407C390.156 547.443 382.6 537.377 366.67 537.377C340.661 537.377 327.24 575.13 327.24 627.135C327.24 648.097 329.764 671.583 337.306 685.837C345.693 705.135 359.114 716.033 379.252 716.033C404.416 716.033 420.366 701.78 432.109 669.061L447.22 674.933ZM494.998 613.714C495.387 594.104 494.544 574.49 492.475 554.986C492.423 553.753 492.112 552.546 491.565 551.441C491.018 550.336 490.246 549.357 489.298 548.567C488.35 547.78 487.247 547.198 486.061 546.861C484.874 546.524 483.631 546.439 482.41 546.611H467.312V532.345C492.475 531.5 526.879 529.822 551.19 522.279L553.713 523.957C555.39 534.022 557.068 558.354 557.914 573.453H559.578C570.503 544.088 585.587 520.602 616.616 520.602C620.887 520.67 625.102 521.604 629.002 523.346C632.904 525.089 636.411 527.604 639.314 530.739C642.216 533.875 644.452 537.567 645.887 541.592C647.323 545.615 647.927 549.889 647.664 554.153C647.664 581.84 626.687 590.228 618.293 590.228C614.972 590.734 611.574 590.199 608.569 588.694C605.566 587.19 603.102 584.79 601.518 581.827C597.33 572.606 594.807 567.574 586.433 567.574C577.199 567.574 572.166 575.962 566.302 589.382C563.176 599.131 561.755 609.347 562.101 619.578C562.101 667.397 562.101 694.231 562.947 705.974C563.793 717.717 567.966 721.059 601.524 721.905L600.692 736.17C577.206 735.325 556.223 734.479 531.904 734.479C506.741 734.479 488.287 735.325 467.304 736.17L469.815 721.905C489.946 721.059 494.979 718.55 494.979 710.162C495.823 698.419 496.656 675.764 496.656 649.769V613.701H494.998V613.714ZM779.387 575.13C779.387 549.953 770.986 536.533 754.211 536.533C734.924 536.533 725.705 547.443 725.705 567.574C725.803 572.926 726.36 578.261 727.369 583.518C727.903 585.875 727.709 588.341 726.814 590.586C725.916 592.831 724.36 594.75 722.35 596.092C715.358 600.709 707.236 603.322 698.864 603.649C682.919 603.649 669.493 596.079 669.493 577.639C669.493 550.798 708.929 520.602 764.296 520.602C809.584 520.602 829.715 539.055 837.271 550.798C841.621 557.555 843.949 565.416 843.981 573.453V696.741C843.981 711.006 848.181 714.361 853.214 714.361C859.924 714.361 867.467 703.451 870.822 684.998L885.088 691.708C877.533 727.782 855.717 742.88 825.521 742.88C799.511 742.88 785.259 731.97 781.052 710.162C760.921 730.293 739.951 742.88 718.143 742.88C682.906 742.88 659.42 719.394 659.42 680.797C659.42 657.311 669.486 643.89 687.108 636.348C715.613 623.759 758.404 611.185 779.374 596.087V575.117L779.387 575.13ZM726.564 668.222C726.564 686.676 734.119 706.807 752.572 706.807C765.993 706.807 771.859 698.419 776.058 690.031C777.99 683.503 778.837 676.702 778.569 669.9V612.862C769.335 618.74 755.083 625.45 744.166 632.16C734.106 638.878 726.564 647.253 726.564 668.222ZM892.664 528.158L919.506 528.99V515.569C920.35 480.34 928.738 454.332 947.191 435.884C955.123 427.709 964.653 421.256 975.186 416.926C985.722 412.596 997.036 410.484 1008.42 410.72C1042.83 410.72 1061.28 427.496 1061.28 449.305C1061.28 465.249 1047.86 476.146 1029.39 476.146C1027.15 476.282 1024.91 475.94 1022.81 475.145C1020.71 474.35 1018.81 473.119 1017.22 471.533C1015.64 469.948 1014.41 468.044 1013.61 465.946C1012.82 463.85 1012.48 461.609 1012.61 459.37C1012.61 441.763 1010.1 427.511 997.526 427.511C989.125 427.511 984.105 435.053 982.415 449.319C980.75 462.74 983.259 487.903 984.937 527.312H1026.05L1023.53 544.088L984.937 546.611C984.092 562.541 984.092 590.228 984.092 622.928C984.092 653.969 984.092 681.643 984.937 703.451C985.783 714.361 987.46 718.55 996.68 719.394C1004.2 720.332 1011.76 720.888 1019.33 721.059L1017.63 735.325C1001.7 735.325 976.529 733.648 954.72 733.648C932.067 733.648 905.219 735.325 890.12 735.325L890.966 721.059C912.775 720.227 916.13 717.703 916.975 708.484C918.639 694.217 918.639 672.409 918.639 643.059V545.765L890.133 544.088L892.644 528.145L892.664 528.158Z" fill="#FEC63E"/>
</svg>
